<svg xmlns="http://www.w3.org/2000/svg" width="942" height="780"><defs><linearGradient id="grd1" gradientUnits="userSpaceOnUse" x1="383.174" y1="775.676" x2="559.308" y2="12.756"><stop offset="0" stop-color="#ff8f5a"/><stop offset=".987" stop-color="#ff2f95"/></linearGradient></defs><style/><g id="1_экран"><g id="bg+Человек+фигура"><path id="Ellipse 1" d="M406.52 52.41C513.26 1.95 613.99 1.8 698.21 39.67c84.44 37.57 152.36 113.17 198.49 207.12 44.27 94.88 44.23 196.79 8.07 279.24-36.66 83.67-97.67 146.75-180.8 191.77-44.03 22.67-90.32 38.2-149.15 47.73-58.06 9.4-128.68 12.8-203.5 7.95-148.47-9.32-314.87-53.08-349.96-151.79-19.89-49.01-7.41-105.2 17.32-161.74 25.13-56.62 62.5-113.6 101.74-166.12 39.64-52.59 81.15-100.71 123.89-141.52 43.14-40.9 87.51-74.48 142.21-99.9z" fill="url(#grd1)"/></g></g></svg>